{"title":"The Musketeers S03E02 - The Hunger x264 RB58.mp4","uid":15212127,"size":630459535,"categoryP":"video","categoryS":"tv_shows","magnet":"?xt=urn:btih:96f55a53d0a9f5248d1b35a8e118503384c26c19&amp;dn=The+Musketeers+S03E02+-+The+Hunger+x264+RB58.mp4&amp;tr=udp%3A%2F%2Ftracker.leechers-paradise.org%3A6969&amp;tr=udp%3A%2F%2Fzer0day.ch%3A1337&amp;tr=udp%3A%2F%2Fopen.demonii.com%3A1337&amp;tr=udp%3A%2F%2Ftracker.coppersurfer.tk%3A6969&amp;tr=udp%3A%2F%2Fexodus.desync.com%3A6969","seeders":0,"leechers":0,"uploader":"RedBaron58","files":1,"time":1467672900,"description":"The Musketeers S03E02 The Hunger x264 mp4\r\n \nhttp://www.imdb.com/title/tt2733252/\r\n\r\nTrailer:\r\n\r\nPlease be patient My intial upload speed is limited.\r\nThank you for your kind comments and feedback on my other torrents, your feedback is welcome.\r\n\r\n\r\nAbout the Episode:\r\nParis is on the brink of starvation, prompting Grimaud and Feron to join forces with \r\nthe Duke of Beaufort to win the King's business. However, to further their scheme, \r\nthey must first frame the city's refugees for stealing much sought-after grain. \r\nAs the conspirators' scapegoats are locked up in the Chatelet to await execution, \r\nD'Artagnan's hot temper also lands him a cell, and with one of their own now behind bars, \r\nthe Musketeers race to secure the release of those who have been wrongly imprisoned. \r\nMeanwhile, spirited refugee Sylvie catches Athos' eye, vowing to prove her friends' innocence.\r\n \r\nTom Burke, Howard Charles and Santiago Cabrera starring as d'Artagnan, \r\nAthos, Porthos and Aramis.\r\n\r\n\r\nI hope you enjoy.\r\n\r\n\r\nTechnical:\r\n\r\nGeneral\r\nComplete name                            : D:The Musketeers S03E02 - The Hunger x264 RB58.mp4\r\nFormat                                   : MPEG-4\r\nFormat profile                           : Base Media\r\nCodec ID                                 : isom\r\nFile size                                : 601 MiB\r\nDuration                                 : 54mn 59s\r\nOverall bit rate                         : 1 529 Kbps\r\nWriting application                      : Lavf54.63.104\r\n\r\nVideo\r\nID                                       : 1\r\nFormat                                   : AVC\r\nFormat/Info                              : Advanced Video Codec\r\nFormat profile                           :   \r\nFormat settings, CABAC                   : Yes\r\nFormat settings, ReFrames                : 4 frames\r\nCodec ID                                 : avc1\r\nCodec ID/Info                            : Advanced Video Coding\r\nDuration                                 : 54mn 59s\r\nBit rate                                 : 1 400 Kbps\r\nWidth                                    : 832 pixels\r\nHeight                                   : 468 pixels\r\nDisplay aspect ratio                     : 16:9\r\nFrame rate mode                          : Constant\r\nFrame rate                               : 25.000 fps\r\nColor space                              : YUV\r\nChroma subsampling                       : 4:2:0\r\nBit depth                                : 8 bits\r\nScan type                                : Progressive\r\nBits/(Pixel*Frame)                       : 0.144\r\nStream size                              : 551 MiB (92%)\r\nWriting library                          : x264 core 123 r2189 35cf912\r\nEncoding settings                        : cabac=1 / ref=3 / deblock=1:0:0\r\n\r\nAudio\r\nID                                       : 2\r\nFormat                                   : AAC\r\nFormat/Info                              : Advanced Audio Codec\r\nFormat profile                           : LC\r\nCodec ID                                 : 40\r\nDuration                                 : 54mn 58s\r\nBit rate mode                            : Constant\r\nBit rate                                 : 120 Kbps\r\nChannel(s)                               : 2 channels\r\nChannel positions                        : Front: L R\r\nSampling rate                            : 48.0 KHz\r\nCompression mode                         : Lossy\r\nStream size                              : 47.3 MiB (8%)","torrent":{"xt":"urn:btih:96f55a53d0a9f5248d1b35a8e118503384c26c19","amp;dn":"The+Musketeers+S03E02+-+The+Hunger+x264+RB58.mp4","amp;tr":["udp%3A%2F%2Ftracker.leechers-paradise.org%3A6969","udp%3A%2F%2Fzer0day.ch%3A1337","udp%3A%2F%2Fopen.demonii.com%3A1337","udp%3A%2F%2Ftracker.coppersurfer.tk%3A6969","udp%3A%2F%2Fexodus.desync.com%3A6969"],"infoHash":"96f55a53d0a9f5248d1b35a8e118503384c26c19","infoHashBuffer":{"type":"Buffer","data":[150,245,90,83,208,169,245,36,141,27,53,168,225,24,80,51,132,194,108,25]},"announce":[],"urlList":[]}}